<svg width="1305" height="441" viewBox="0 0 1305 441" fill="none" xmlns="http://www.w3.org/2000/svg">
<path d="M0 23.986C5.32209 24.1992 12.4537 24.4124 21.3948 24.6256C30.5488 24.8388 39.5964 24.9454 48.5375 24.9454C58.7559 24.9454 68.655 24.8388 78.2348 24.6256C87.8145 24.4124 94.6268 24.3058 98.6716 24.3058C128.262 24.3058 150.402 30.169 165.091 41.8955C179.78 53.622 187.125 68.7598 187.125 87.309C187.125 94.9845 185.635 103.086 182.654 111.615C179.674 119.93 174.565 127.712 167.327 134.961C160.301 141.997 150.615 147.754 138.268 152.231C125.921 156.708 110.38 158.947 91.6464 158.947H59.0752V152.551H88.4532C101.013 152.551 110.487 149.673 116.873 143.916C123.473 138.159 127.943 130.59 130.285 121.209C132.839 111.828 134.117 101.701 134.117 90.8269C134.117 70.5721 131.136 55.4343 125.176 45.4135C119.215 35.3927 108.996 30.3823 94.5203 30.3823C86.2179 30.3823 80.7894 32.1945 78.2348 35.8191C75.893 39.4436 74.7222 46.7993 74.7222 57.8862V214.595C74.7222 222.91 75.5737 229.093 77.2768 233.144C78.9798 237.195 82.2795 239.86 87.1759 241.139C92.0722 242.418 99.3102 243.165 108.89 243.378V250.414C102.291 250.2 93.7753 249.987 83.344 249.774C72.9127 249.561 61.9491 249.454 50.4534 249.454C41.2994 249.454 32.3583 249.561 23.6301 249.774C14.9019 249.987 7.02516 250.2 0 250.414V244.017C6.81228 243.591 11.9215 242.738 15.3276 241.459C18.7338 240.18 20.969 237.621 22.0335 233.783C23.3108 229.946 23.9494 224.189 23.9494 216.513V57.8862C23.9494 49.9974 23.3108 44.2408 22.0335 40.6163C20.969 36.7785 18.6273 34.22 15.0083 32.9408C11.6022 31.4483 6.59939 30.5955 0 30.3823V23.986Z" fill="black"/>
<path d="M263.399 0V220.671C263.399 229.626 264.889 235.702 267.869 238.9C271.062 242.099 276.385 243.698 283.835 243.698V250.414C279.791 250.2 273.723 249.987 265.634 249.774C257.544 249.348 249.348 249.134 241.046 249.134C232.743 249.134 224.334 249.348 215.819 249.774C207.517 249.987 201.237 250.2 196.979 250.414V243.698C204.43 243.698 209.645 242.099 212.626 238.9C215.819 235.702 217.416 229.626 217.416 220.671V38.3776C217.416 28.7832 215.926 21.7473 212.945 17.2699C210.178 12.5793 204.856 10.234 196.979 10.234V3.51796C203.791 4.15757 210.391 4.47738 216.777 4.47738C225.505 4.47738 233.808 4.15757 241.684 3.51796C249.561 2.66512 256.799 1.49247 263.399 0Z" fill="black"/>
<path d="M341.489 252.652C331.909 252.652 323.926 250.84 317.539 247.216C311.153 243.591 306.469 238.794 303.489 232.824C300.509 226.641 299.018 219.925 299.018 212.676C299.018 203.508 301.041 196.045 305.086 190.289C309.343 184.532 314.772 179.842 321.371 176.217C327.971 172.592 334.889 169.608 342.127 167.262C349.578 164.917 356.603 162.678 363.203 160.546C370.015 158.201 375.444 155.536 379.488 152.551C383.746 149.353 385.875 145.302 385.875 140.398V115.453C385.875 109.909 384.917 105.005 383.001 100.741C381.298 96.2637 378.53 92.8524 374.699 90.5071C371.079 88.1618 366.29 86.9892 360.329 86.9892C356.071 86.9892 351.814 87.6288 347.556 88.9081C343.298 89.9741 339.786 91.893 337.018 94.6647C342.979 96.7968 347.556 100.102 350.749 104.579C354.155 108.843 355.858 113.747 355.858 119.29C355.858 126.539 353.304 132.296 348.194 136.56C343.298 140.824 337.444 142.956 330.632 142.956C322.968 142.956 317.113 140.611 313.069 135.921C309.237 131.017 307.321 125.154 307.321 118.331C307.321 112.148 308.811 107.031 311.791 102.98C314.985 98.9289 319.349 95.0911 324.884 91.4666C330.845 88.0552 337.976 85.3901 346.279 83.4712C354.794 81.5524 363.948 80.5929 373.741 80.5929C383.533 80.5929 392.368 81.6589 400.245 83.791C408.121 85.7099 414.721 89.3345 420.043 94.6647C424.939 99.5685 428.132 105.645 429.622 112.894C431.113 119.93 431.858 128.885 431.858 139.758V226.747C431.858 232.078 432.39 235.809 433.454 237.941C434.519 239.86 436.328 240.819 438.883 240.819C440.799 240.819 442.608 240.286 444.311 239.22C446.227 238.154 448.25 236.875 450.379 235.382L453.572 240.819C449.101 244.657 443.886 247.642 437.925 249.774C432.177 251.693 425.684 252.652 418.446 252.652C410.569 252.652 404.289 251.586 399.606 249.454C394.922 247.109 391.516 244.017 389.388 240.18C387.472 236.342 386.514 231.865 386.514 226.747C381.404 234.849 375.231 241.246 367.993 245.936C360.755 250.414 351.92 252.652 341.489 252.652ZM364.161 232.184C368.418 232.184 372.25 231.225 375.656 229.306C379.276 227.174 382.682 223.763 385.875 219.072V153.51C383.959 156.708 381.298 159.587 377.892 162.145C374.486 164.704 370.867 167.369 367.035 170.141C363.203 172.699 359.477 175.577 355.858 178.776C352.452 181.974 349.685 185.918 347.556 190.609C345.427 195.299 344.363 200.949 344.363 207.559C344.363 215.874 346.172 222.057 349.791 226.108C353.41 230.159 358.2 232.184 364.161 232.184Z" fill="black"/>
<path d="M616.041 85.0703V91.4666C611.996 92.5326 608.165 95.0911 604.546 99.1421C600.927 102.98 597.414 109.589 594.008 118.97L548.983 245.616L537.168 268.003L467.555 109.696C463.936 101.381 460.317 96.3704 456.698 94.6647C453.292 92.7458 450.311 91.7864 447.757 91.7864V85.0703C454.782 85.7099 462.02 86.243 469.471 86.6694C477.135 86.8826 484.479 86.9892 491.504 86.9892C500.233 86.9892 508.216 86.776 515.454 86.3495C522.692 85.9231 529.504 85.4967 535.891 85.0703V91.7864C531.633 91.7864 527.588 92.1062 523.756 92.7458C520.137 93.1722 517.583 94.6647 516.092 97.2232C514.815 99.5685 515.454 103.726 518.008 109.696L558.243 206.919L555.369 208.838L578.999 142.637C583.044 131.123 584.747 121.742 584.109 114.493C583.47 107.031 581.128 101.487 577.083 97.8628C573.039 94.0251 567.504 91.893 560.479 91.4666V85.0703C563.885 85.2835 567.397 85.4967 571.016 85.7099C574.635 85.7099 578.254 85.8165 581.873 86.0297C585.492 86.0297 588.686 86.0297 591.453 86.0297C595.711 86.0297 600.181 85.9231 604.865 85.7099C609.548 85.4967 613.274 85.2835 616.041 85.0703ZM548.983 245.616L536.849 279.836C534.72 285.167 532.484 289.644 530.143 293.269C528.014 297.106 525.566 300.198 522.798 302.543C519.818 305.102 515.986 307.021 511.302 308.3C506.619 309.792 501.19 310.539 495.017 310.539C489.908 310.539 484.586 309.686 479.051 307.98C473.729 306.274 469.258 303.503 465.639 299.665C462.02 295.827 460.21 290.923 460.21 284.953C460.21 278.344 462.552 273.014 467.236 268.963C471.919 265.125 478.093 263.206 485.756 263.206C492.782 263.206 498.529 264.912 503 268.323C507.471 271.735 509.706 276.745 509.706 283.354C509.706 287.619 508.322 291.67 505.555 295.507C503 299.345 499.062 302.223 493.74 304.142C494.804 304.355 496.081 304.462 497.571 304.462C499.062 304.462 500.233 304.462 501.084 304.462C507.471 304.462 513.112 302.437 518.008 298.386C522.905 294.335 526.949 287.938 530.143 279.197L541.319 246.256L548.983 245.616Z" fill="black"/>
<path d="M705.415 0.319807C712.866 0.319807 719.359 1.27925 724.894 3.19813C730.429 5.11701 735.325 7.67552 739.583 10.8737C742.563 13.2189 745.118 16.5237 747.247 20.7878C749.375 24.8388 750.44 29.5294 750.44 34.8596C750.44 40.6163 748.311 45.7333 744.053 50.2107C740.009 54.688 734.58 56.9267 727.768 56.9267C720.743 56.9267 714.888 54.9013 710.205 50.8503C705.734 46.7993 703.499 41.2559 703.499 34.22C703.499 28.6766 705.096 23.7728 708.289 19.5086C711.482 15.2444 716.166 12.2595 722.339 10.5538C721.701 9.27458 720.423 8.20854 718.507 7.3557C716.591 6.50287 714.037 6.07645 710.844 6.07645C706.586 6.07645 703.073 6.82268 700.306 8.31515C697.538 9.8076 695.303 11.8331 693.6 14.3916C691.258 17.5897 689.662 22.2803 688.81 28.4634C687.958 34.4332 687.533 43.7078 687.533 56.2871V85.3901H721.701V91.7864H687.533V217.473C687.533 227.92 690.194 234.956 695.516 238.581C700.838 241.992 708.182 243.698 717.549 243.698V250.414C712.014 250.2 704.244 249.987 694.239 249.774C684.233 249.348 673.695 249.134 662.625 249.134C654.536 249.134 646.553 249.348 638.676 249.774C631.012 249.987 625.158 250.2 621.113 250.414V243.698C628.564 243.698 633.78 242.099 636.76 238.9C639.953 235.702 641.55 229.626 641.55 220.671V91.7864H619.836V85.3901H641.55C641.55 72.8108 642.189 62.3636 643.466 54.0484C644.743 45.5201 646.872 38.271 649.852 32.3011C652.833 26.3313 656.771 21.0011 661.667 16.3105C666.351 11.8331 672.524 8.10194 680.188 5.11702C688.065 1.91888 696.474 0.319807 705.415 0.319807Z" fill="black"/>
<path d="M777.443 252.652C767.863 252.652 759.88 250.84 753.493 247.216C747.107 243.591 742.423 238.794 739.443 232.824C736.463 226.641 734.972 219.925 734.972 212.676C734.972 203.508 736.995 196.045 741.04 190.289C745.297 184.532 750.726 179.842 757.325 176.217C763.925 172.592 770.843 169.608 778.081 167.262C785.532 164.917 792.558 162.678 799.157 160.546C805.969 158.201 811.398 155.536 815.443 152.551C819.7 149.353 821.829 145.302 821.829 140.398V115.453C821.829 109.909 820.871 105.005 818.955 100.741C817.252 96.2637 814.485 92.8524 810.653 90.5071C807.034 88.1618 802.244 86.9892 796.283 86.9892C792.025 86.9892 787.768 87.6288 783.51 88.9081C779.252 89.9741 775.74 91.893 772.972 94.6647C778.933 96.7968 783.51 100.102 786.703 104.579C790.109 108.843 791.812 113.747 791.812 119.29C791.812 126.539 789.258 132.296 784.149 136.56C779.252 140.824 773.398 142.956 766.586 142.956C758.922 142.956 753.068 140.611 749.023 135.921C745.191 131.017 743.275 125.154 743.275 118.331C743.275 112.148 744.765 107.031 747.746 102.98C750.939 98.9289 755.303 95.0911 760.838 91.4666C766.799 88.0552 773.93 85.3901 782.233 83.4712C790.748 81.5524 799.902 80.5929 809.695 80.5929C819.487 80.5929 828.322 81.6589 836.199 83.791C844.075 85.7099 850.675 89.3345 855.997 94.6647C860.893 99.5685 864.086 105.645 865.577 112.894C867.067 119.93 867.812 128.885 867.812 139.758V226.747C867.812 232.078 868.344 235.809 869.409 237.941C870.473 239.86 872.282 240.819 874.837 240.819C876.753 240.819 878.563 240.286 880.266 239.22C882.182 238.154 884.204 236.875 886.333 235.382L889.526 240.819C885.055 244.657 879.84 247.642 873.879 249.774C868.131 251.693 861.638 252.652 854.4 252.652C846.524 252.652 840.244 251.586 835.56 249.454C830.877 247.109 827.47 244.017 825.342 240.18C823.426 236.342 822.468 231.865 822.468 226.747C817.359 234.849 811.185 241.246 803.947 245.936C796.709 250.414 787.874 252.652 777.443 252.652ZM800.115 232.184C804.373 232.184 808.205 231.225 811.611 229.306C815.23 227.174 818.636 223.763 821.829 219.072V153.51C819.913 156.708 817.252 159.587 813.846 162.145C810.44 164.704 806.821 167.369 802.989 170.141C799.157 172.699 795.431 175.577 791.812 178.776C788.406 181.974 785.639 185.918 783.51 190.609C781.381 195.299 780.317 200.949 780.317 207.559C780.317 215.874 782.126 222.057 785.745 226.108C789.364 230.159 794.154 232.184 800.115 232.184Z" fill="black"/>
<path d="M940.164 2.55851C949.105 2.55851 956.13 4.7972 961.24 9.27459C966.562 13.5388 969.223 19.5086 969.223 27.1841C969.223 34.8596 966.562 40.9361 961.24 45.4135C956.13 49.6776 949.105 51.8097 940.164 51.8097C931.223 51.8097 924.091 49.6776 918.769 45.4135C913.66 40.9361 911.105 34.8596 911.105 27.1841C911.105 19.5086 913.66 13.5388 918.769 9.27459C924.091 4.7972 931.223 2.55851 940.164 2.55851ZM965.071 81.5524V220.671C965.071 229.626 966.562 235.702 969.542 238.9C972.735 242.099 978.057 243.698 985.508 243.698V250.414C981.676 250.2 975.716 249.987 967.626 249.774C959.536 249.348 951.341 249.134 943.038 249.134C934.736 249.134 926.327 249.348 917.811 249.774C909.296 249.987 902.909 250.2 898.652 250.414V243.698C906.103 243.698 911.318 242.099 914.299 238.9C917.492 235.702 919.089 229.626 919.089 220.671V119.93C919.089 110.336 917.598 103.3 914.618 98.8222C911.851 94.1317 906.529 91.7864 898.652 91.7864V85.0703C905.464 85.7099 912.063 86.0297 918.45 86.0297C927.391 86.0297 935.693 85.7099 943.357 85.0703C951.234 84.2175 958.472 83.0448 965.071 81.5524Z" fill="black"/>
<path d="M1109.22 80.5929C1116.04 80.5929 1121.57 82.0854 1125.83 85.0703C1130.09 87.842 1133.17 91.4666 1135.09 95.9439C1137.22 100.421 1138.28 105.112 1138.28 110.016C1138.28 117.904 1135.94 124.407 1131.26 129.524C1126.79 134.428 1120.83 136.88 1113.38 136.88C1105.92 136.88 1100.07 135.068 1095.81 131.443C1091.77 127.605 1089.75 122.595 1089.75 116.412C1089.75 110.442 1091.02 105.538 1093.58 101.701C1096.34 97.6496 1099.75 94.2383 1103.8 91.4666C1100.82 90.6137 1097.84 90.7203 1094.85 91.7864C1090.81 92.426 1086.98 94.1317 1083.36 96.9034C1079.74 99.4619 1076.65 102.767 1074.1 106.818C1071.54 110.655 1069.52 114.92 1068.03 119.61C1066.54 124.088 1065.8 128.458 1065.8 132.722V217.473C1065.8 227.707 1068.24 234.636 1073.14 238.261C1078.25 241.885 1085.81 243.698 1095.81 243.698V250.414C1090.92 250.2 1083.78 249.987 1074.42 249.774C1065.05 249.348 1055.26 249.134 1045.04 249.134C1036.52 249.134 1027.9 249.348 1019.17 249.774C1010.45 249.987 1003.85 250.2 999.377 250.414V243.698C1006.83 243.698 1012.04 242.099 1015.02 238.9C1018.22 235.702 1019.81 229.626 1019.81 220.671V119.93C1019.81 110.336 1018.32 103.3 1015.34 98.8222C1012.58 94.1317 1007.25 91.7864 999.377 91.7864V85.0703C1006.19 85.7099 1012.79 86.0297 1019.17 86.0297C1028.12 86.0297 1036.42 85.7099 1044.08 85.0703C1051.96 84.2175 1059.2 83.0448 1065.8 81.5524V111.295C1068.35 105.538 1071.76 100.315 1076.01 95.6241C1080.27 90.9335 1085.17 87.309 1090.7 84.7505C1096.24 81.9788 1102.41 80.5929 1109.22 80.5929Z" fill="black"/>
<path d="M839.648 322.997C839.648 331.185 838.404 339.312 835.916 347.381C833.547 355.45 829.993 363.103 825.254 370.341C820.515 377.579 814.65 383.986 807.66 389.563C800.67 395.14 792.614 399.53 783.491 402.734C774.487 405.937 764.358 407.539 753.103 407.539C751.326 407.539 749.015 407.48 746.172 407.361C743.329 407.243 740.248 407.183 736.931 407.183C733.732 407.065 730.415 407.005 726.979 407.005C724.254 407.005 721.292 407.065 718.094 407.183C714.895 407.183 711.874 407.243 709.03 407.361C706.305 407.361 703.995 407.421 702.1 407.539L702.633 403.98C706.424 403.742 709.386 403.268 711.518 402.556C713.769 401.844 715.546 400.42 716.85 398.284C718.153 396.148 719.338 392.945 720.404 388.673L743.684 300.393C744.632 296.834 745.047 293.986 744.928 291.85C744.928 289.596 744.039 287.935 742.262 286.867C740.604 285.799 737.642 285.206 733.377 285.087L733.91 281.527C735.924 281.646 738.412 281.765 741.374 281.883C744.336 282.002 747.475 282.061 750.792 282.061C754.228 282.061 757.486 282.061 760.567 282.061C762.818 281.943 765.602 281.883 768.919 281.883C772.236 281.765 775.554 281.705 778.871 281.705C782.188 281.587 784.972 281.527 787.223 281.527C804.284 281.527 817.257 285.028 826.142 292.028C835.146 299.029 839.648 309.352 839.648 322.997ZM752.392 404.336C760.567 404.336 767.912 402.734 774.428 399.53C781.063 396.326 786.868 391.877 791.844 386.181C796.938 380.486 801.144 373.96 804.461 366.603C807.897 359.247 810.444 351.415 812.103 343.109C813.88 334.685 814.769 326.26 814.769 317.836C814.769 306.92 812.281 298.673 807.305 293.096C802.329 287.519 794.213 284.731 782.958 284.731C779.76 284.731 777.272 285.146 775.495 285.977C773.717 286.689 772.296 288.172 771.229 290.426C770.163 292.562 769.097 295.766 768.031 300.038L744.75 389.029C743.684 392.707 743.032 395.674 742.796 397.928C742.677 400.183 743.329 401.844 744.75 402.912C746.172 403.861 748.719 404.336 752.392 404.336Z" fill="black"/>
<path d="M874.81 285.087C875.166 280.697 876.943 277.196 880.142 274.586C883.34 271.976 887.072 270.67 891.337 270.67C895.247 270.67 898.209 271.798 900.223 274.052C902.356 276.188 903.244 278.976 902.889 282.417C902.533 286.451 900.756 289.833 897.557 292.562C894.359 295.291 890.627 296.656 886.361 296.656C882.452 296.656 879.431 295.588 877.298 293.452C875.284 291.198 874.455 288.409 874.81 285.087ZM868.59 330.829C870.723 324.421 870.012 321.217 866.458 321.217C864.088 321.217 861.956 322.463 860.06 324.955C858.165 327.328 856.151 331.185 854.018 336.524L850.997 344.889H847.62L852.241 331.54C854.018 326.794 856.151 323.116 858.638 320.506C861.126 317.776 863.911 315.878 866.991 314.81C870.071 313.742 873.092 313.208 876.054 313.208C880.201 313.208 883.34 313.98 885.473 315.522C887.606 317.065 889.027 319.082 889.738 321.573C890.449 324.065 890.627 326.794 890.271 329.761C889.916 332.608 889.264 335.397 888.316 338.126L869.479 392.411C868.413 395.614 868.116 398.047 868.59 399.708C869.064 401.25 870.19 402.022 871.967 402.022C873.862 402.022 875.758 401.013 877.654 398.996C879.668 396.86 881.8 392.767 884.051 386.715L887.072 378.706H890.449L886.006 391.699C884.229 396.445 882.096 400.183 879.608 402.912C877.12 405.522 874.396 407.361 871.434 408.429C868.472 409.497 865.569 410.031 862.726 410.031C857.513 410.031 853.722 408.904 851.352 406.649C848.983 404.276 847.798 401.073 847.798 397.038C847.798 392.885 848.746 388.139 850.641 382.8L868.59 330.829Z" fill="black"/>
<path d="M911.136 404.869C912.083 405.344 913.09 405.759 914.157 406.115C915.223 406.353 916.704 406.471 918.599 406.471C923.102 406.471 926.833 405.047 929.795 402.2C932.876 399.233 934.416 395.14 934.416 389.919C934.416 386.122 933.586 382.266 931.928 378.35C930.388 374.434 928.018 370.104 924.819 365.357C921.976 361.204 919.37 357.111 917 353.076C914.749 349.042 913.624 344.415 913.624 339.194C913.624 334.092 914.868 329.642 917.356 325.845C919.844 321.929 923.398 318.844 928.018 316.59C932.639 314.335 938.029 313.208 944.19 313.208C948.218 313.208 952.187 313.683 956.097 314.632C960.006 315.581 963.205 317.302 965.693 319.794C968.181 322.285 969.425 325.904 969.425 330.651C969.425 332.312 969.07 334.092 968.359 335.99C967.648 337.77 966.582 339.312 965.16 340.618C963.738 341.923 961.843 342.575 959.473 342.575C956.985 342.575 954.912 341.626 953.253 339.728C951.595 337.711 950.765 335.159 950.765 332.074C950.765 329.345 951.239 326.794 952.187 324.421C953.253 322.048 954.497 319.972 955.919 318.192C954.26 317.243 951.891 316.768 948.81 316.768C944.545 316.768 941.11 318.132 938.503 320.862C935.897 323.591 934.594 327.447 934.594 332.43C934.594 335.041 935.008 337.533 935.838 339.906C936.785 342.16 938.029 344.533 939.569 347.025C941.228 349.398 943.065 352.187 945.079 355.39C948.396 360.73 951.002 365.535 952.898 369.807C954.793 373.96 955.741 378.231 955.741 382.622C955.741 387.842 954.32 392.529 951.476 396.682C948.751 400.835 944.96 404.098 940.103 406.471C935.245 408.844 929.558 410.031 923.042 410.031C918.422 410.031 913.979 409.378 909.714 408.073C905.567 406.887 902.131 404.869 899.407 402.022C896.8 399.174 895.497 395.258 895.497 390.275C895.497 387.546 896.267 385.054 897.807 382.8C899.229 380.427 901.48 379.24 904.56 379.24C907.641 379.24 909.951 380.486 911.491 382.978C913.031 385.469 913.801 388.554 913.801 392.233C913.801 394.843 913.446 397.276 912.735 399.53C912.143 401.666 911.609 403.446 911.136 404.869Z" fill="black"/>
<path d="M1038.06 321.396C1035.46 321.396 1032.55 323.116 1029.35 326.557C1026.27 329.998 1023.13 334.744 1019.94 340.796C1016.74 346.728 1013.72 353.432 1010.87 360.908C1008.15 368.383 1005.78 376.214 1003.76 384.401L1007.14 365.891C1011.29 353.314 1015.43 343.169 1019.58 335.456C1023.73 327.744 1027.99 322.107 1032.38 318.548C1036.76 314.988 1041.44 313.208 1046.41 313.208C1053.05 313.208 1058.14 315.463 1061.7 319.972C1065.37 324.481 1067.21 331.125 1067.21 339.906C1067.21 345.364 1066.44 351.237 1064.9 357.526C1063.36 363.815 1061.11 370.044 1058.14 376.214C1055.3 382.384 1051.75 388.08 1047.48 393.301C1043.22 398.403 1038.3 402.496 1032.73 405.581C1027.28 408.548 1021.18 410.031 1014.43 410.031C1010.64 410.031 1007.26 409.2 1004.3 407.539C1001.33 405.878 999.143 403.564 997.721 400.598L999.143 397.572C1000.56 400.301 1002.1 402.259 1003.76 403.446C1005.42 404.632 1007.38 405.225 1009.63 405.225C1013.3 405.225 1016.86 403.802 1020.29 400.954C1023.85 397.987 1027.04 394.072 1029.89 389.207C1032.85 384.223 1035.46 378.706 1037.71 372.655C1039.96 366.603 1041.68 360.433 1042.86 354.144C1044.16 347.856 1044.81 341.982 1044.81 336.524C1044.81 330.829 1044.22 326.913 1043.04 324.777C1041.85 322.523 1040.19 321.396 1038.06 321.396ZM1009.09 289.893C1013.24 289.537 1017.21 289.062 1021 288.469C1024.91 287.757 1028.58 286.807 1032.02 285.621L993.456 421.778C991.798 427.473 992.272 431.27 994.878 433.169C997.484 435.067 1001.69 436.017 1007.5 436.017L1006.43 439.754C1003.7 439.635 999.913 439.458 995.056 439.22C990.198 439.102 985.104 439.042 979.772 439.042C975.389 439.042 970.946 439.102 966.444 439.22C961.942 439.458 958.625 439.635 956.492 439.754L957.559 436.017C961.824 436.017 964.904 435.186 966.8 433.525C968.695 431.982 970.235 429.135 971.42 424.982L1009.09 289.893ZM973.73 344.711C978.232 340.202 982.379 335.693 986.17 331.185C990.08 326.557 993.871 321.158 997.544 314.988C1001.22 308.699 1004.89 300.809 1008.56 291.316L1009.09 294.164C1006.61 302.351 1003.65 309.589 1000.21 315.878C996.774 322.048 992.982 327.625 988.836 332.608C984.808 337.592 980.424 342.397 975.685 347.025L973.73 344.711Z" fill="black"/>
<path d="M1096.04 392.411C1095.09 395.614 1094.85 398.047 1095.33 399.708C1095.92 401.25 1097.11 402.022 1098.88 402.022C1100.54 402.022 1102.32 401.013 1104.21 398.996C1106.23 396.86 1108.36 392.767 1110.61 386.715L1113.45 378.706H1116.83L1112.39 391.699C1110.73 396.445 1108.66 400.183 1106.17 402.912C1103.68 405.522 1101.01 407.361 1098.17 408.429C1095.33 409.497 1092.43 410.031 1089.46 410.031C1085.67 410.031 1082.65 409.319 1080.4 407.895C1078.15 406.471 1076.61 404.514 1075.78 402.022C1074.95 399.53 1074.65 396.682 1074.89 393.479C1075.13 390.156 1075.84 386.597 1077.02 382.8L1105.28 288.825C1106.46 284.79 1106.35 281.824 1104.92 279.925C1103.5 278.027 1099.89 277.078 1094.08 277.078L1095.33 273.34C1103.03 273.221 1109.9 272.569 1115.94 271.382C1121.98 270.077 1127.79 268.297 1133.36 266.043L1096.04 392.411Z" fill="black"/>
<path d="M1153.79 401.844C1155.92 401.844 1158.35 400.598 1161.08 398.106C1163.8 395.496 1166.58 391.877 1169.43 387.249C1172.27 382.622 1175 377.104 1177.6 370.697C1180.21 364.289 1182.46 357.289 1184.36 349.695L1180.62 368.917C1177.19 379.003 1173.52 387.071 1169.61 393.123C1165.81 399.174 1161.79 403.505 1157.52 406.115C1153.38 408.726 1149.05 410.031 1144.55 410.031C1138.15 410.031 1133.41 408.073 1130.33 404.158C1127.25 400.123 1125.71 394.784 1125.71 388.139C1125.71 381.969 1126.72 375.502 1128.73 368.739C1130.75 361.857 1133.53 355.153 1137.08 348.627C1140.76 341.982 1144.9 336.049 1149.52 330.829C1154.15 325.489 1159.06 321.218 1164.27 318.014C1169.49 314.81 1174.7 313.208 1179.91 313.208C1183.94 313.208 1187.02 314.929 1189.15 318.37C1191.29 321.692 1191.82 326.794 1190.75 333.676L1188.8 334.744C1189.63 329.761 1189.39 325.845 1188.09 322.997C1186.9 320.15 1184.89 318.726 1182.05 318.726C1179.32 318.726 1176.42 320.15 1173.34 322.997C1170.38 325.845 1167.41 329.701 1164.45 334.566C1161.49 339.431 1158.77 344.949 1156.28 351.119C1153.91 357.289 1152.01 363.696 1150.59 370.341C1149.17 376.985 1148.46 383.452 1148.46 389.741C1148.46 394.131 1148.87 397.276 1149.7 399.174C1150.65 400.954 1152.01 401.844 1153.79 401.844ZM1193.77 315.7C1198.04 315.581 1202.01 315.344 1205.68 314.988C1209.47 314.632 1213.09 314.039 1216.52 313.208L1193.6 392.233C1193.12 393.657 1192.77 395.14 1192.53 396.682C1192.41 398.106 1192.53 399.352 1192.89 400.42C1193.36 401.369 1194.37 401.844 1195.91 401.844C1197.8 401.844 1199.76 400.835 1201.77 398.818C1203.79 396.801 1205.86 392.707 1207.99 386.537L1210.66 378.528H1214.03L1209.59 391.521C1207.93 396.386 1205.86 400.183 1203.37 402.912C1200.88 405.522 1198.22 407.361 1195.37 408.429C1192.65 409.497 1189.92 410.031 1187.2 410.031C1181.51 410.031 1177.48 408.251 1175.11 404.691C1173.57 402.081 1172.98 398.877 1173.34 395.08C1173.69 391.283 1174.46 387.19 1175.65 382.8L1193.77 315.7Z" fill="black"/>
<path d="M1275.5 397.928L1258.97 416.616L1244.76 331.185C1244.28 327.744 1243.69 325.37 1242.98 324.065C1242.27 322.76 1241.26 322.107 1239.96 322.107C1238.65 322.107 1237.29 323.057 1235.87 324.955C1234.57 326.735 1232.85 330.591 1230.72 336.524L1227.87 344.355H1224.5L1228.94 331.363C1231.43 324.125 1234.51 319.319 1238.18 316.946C1241.97 314.454 1246.06 313.208 1250.44 313.208C1254.83 313.208 1258.32 314.513 1260.93 317.124C1263.65 319.616 1265.49 324.421 1266.44 331.54L1275.5 397.928ZM1234.27 432.279C1239.6 429.668 1245.17 425.99 1250.98 421.244C1256.9 416.616 1263 410.328 1269.28 402.378C1275.91 393.835 1281.84 384.579 1287.05 374.612C1292.38 364.527 1296.23 354.678 1298.6 345.067C1296 343.643 1293.45 341.923 1290.96 339.906C1288.59 337.77 1286.64 335.397 1285.1 332.786C1283.67 330.057 1282.96 327.15 1282.96 324.065C1283.2 320.624 1284.27 317.954 1286.16 316.056C1288.18 314.158 1290.78 313.208 1293.98 313.208C1297.77 313.208 1300.56 314.573 1302.33 317.302C1304.11 319.912 1305 323.709 1305 328.693C1305 334.507 1303.99 340.796 1301.98 347.559C1300.08 354.322 1297.48 361.264 1294.16 368.383C1290.84 375.384 1287.05 382.206 1282.79 388.851C1278.64 395.377 1274.37 401.428 1269.99 407.005C1266.79 410.802 1263.12 414.659 1258.97 418.574C1254.94 422.49 1250.44 426.109 1245.47 429.431C1240.61 432.872 1235.4 435.661 1229.83 437.796C1226.98 438.983 1224.44 439.814 1222.19 440.288C1219.94 440.763 1218.04 441 1216.5 441C1213.18 441 1210.46 440.169 1208.32 438.508C1206.19 436.966 1205.13 434.771 1205.13 431.923C1205.13 428.957 1206.25 426.524 1208.5 424.626C1210.64 422.846 1213.36 421.956 1216.68 421.956C1219.99 421.956 1223.07 422.905 1225.92 424.804C1228.88 426.702 1231.66 429.194 1234.27 432.279Z" fill="black"/>
</svg>
