<svg width="834" height="1003" viewBox="0 0 834 1003" fill="none" xmlns="http://www.w3.org/2000/svg">
<path d="M148.796 260.297H611.562C622.466 260.297 631.305 269.195 631.305 280.172V743.12C631.305 754.096 622.466 762.995 611.562 762.995H148.796C137.892 762.995 129.053 754.096 129.053 743.12V280.172C129.053 269.195 137.892 260.297 148.796 260.297Z" fill="black" stroke="black" stroke-miterlimit="10"/>
<path d="M174.778 285.001H585.579C596.483 285.001 605.323 293.899 605.323 304.876V718.406C605.323 729.383 596.483 738.281 585.579 738.281H174.778C163.874 738.281 155.035 729.383 155.035 718.406V304.876C155.035 293.899 163.874 285.001 174.778 285.001Z" fill="white" stroke="#231F20" stroke-miterlimit="10"/>
<path d="M878.808 780.077C876.34 779.868 873.872 779.53 871.306 779.461C857.86 779.093 844.405 778.755 830.99 780.027C810.259 782.015 789.746 785.294 769.617 790.958C753.063 795.619 736.626 800.548 720.989 807.762C710.906 812.268 701.394 817.973 692.658 824.755C687.032 829.042 682.406 834.516 679.104 840.794C678.959 841.099 678.751 841.369 678.494 841.587C678.237 841.804 677.937 841.964 677.613 842.056C678.551 832.228 679.41 822.4 680.436 812.582C681.463 802.764 680.703 792.866 682.825 782.77L686.952 783.396C690.061 783.853 693.161 784.39 696.281 784.727C702.072 785.45 707.625 787.489 712.519 790.69C713.825 791.591 715.338 792.14 716.915 792.283C718.492 792.425 720.078 792.157 721.522 791.505C733.092 786.476 744.445 781.031 754.918 773.886C766.764 765.777 770.595 752.213 767.041 738.36C765.6 732.746 762.717 728.681 757.643 726.088C755.34 724.839 752.787 724.129 750.174 724.01C747.561 723.891 744.954 724.367 742.549 725.402C738.433 727.141 734.543 729.377 730.595 731.533C727.278 733.292 724 735.121 720.723 736.989C719.643 737.672 718.413 738.077 717.141 738.169C715.868 738.261 714.593 738.036 713.428 737.515C711.651 736.77 709.775 736.273 707.574 735.528C708.136 734.923 708.732 734.353 709.361 733.819C721.394 724.965 734.918 719.012 748.798 713.944C768.443 706.7 788.462 700.618 809.015 696.723C817.57 695.08 826.223 694.015 834.919 693.533C847.851 692.867 860.822 692.967 873.774 692.778C875.551 692.778 877.337 692.917 879.124 692.977C879.193 692.977 879.272 692.818 879.45 692.599C879.243 691.069 877.9 691.396 876.972 691.367C869.598 691.118 862.165 690.641 854.83 690.81C840.674 691.128 826.528 691.804 812.539 694.288C798.755 696.852 785.137 700.251 771.76 704.464C756.597 709.105 741.523 714.014 727.337 721.298C721.325 724.398 715.59 728.055 709.736 731.464C709.025 731.881 708.354 732.348 707.218 733.073C707.13 731.384 707.021 730.092 707.021 728.84C707.021 699.674 707.436 670.508 707.021 641.392C705.935 566.862 707.021 492.333 706.774 417.803C706.666 387.057 706.873 356.311 706.774 325.565C706.774 321.918 707.524 319.603 710.861 317.615C717.317 313.8 723.201 308.97 729.736 305.303C748.62 294.72 768.926 288.012 790.18 284.296C802.332 282.169 814.524 280.212 826.765 278.661C838.456 277.204 850.247 276.732 862.016 277.25C868.167 277.519 874.336 277.3 880.871 277.3C881.414 266.279 880.289 255.04 880.17 243.513C876.607 243.255 873.379 242.808 870.161 242.827C857.327 242.917 844.494 242.659 831.661 243.483C817.035 244.368 802.507 246.468 788.225 249.764C767.021 254.732 746.004 260.347 725.905 268.963C714.149 273.862 703.06 280.246 692.904 287.963C687.134 292.267 682.409 297.832 679.084 304.24C678.851 304.652 678.58 305.041 678.275 305.403C678.215 305.472 678.047 305.452 677.613 305.532C678.551 295.594 679.43 285.747 680.446 275.909C681.463 266.071 680.723 256.203 682.845 246.196L687.376 246.882C690.338 247.319 693.349 247.876 696.35 248.174C702.016 248.845 707.452 250.824 712.233 253.957C713.693 254.954 715.39 255.544 717.15 255.666C718.91 255.788 720.671 255.439 722.253 254.653C726.666 252.665 731.137 250.777 735.402 248.462C742.204 244.745 749.045 241.039 755.471 236.736C767.13 228.905 770.279 215.579 767.219 202.413C765.827 196.4 762.806 191.949 757.248 189.295C754.967 188.123 752.456 187.474 749.895 187.395C747.335 187.316 744.789 187.809 742.441 188.838C738.225 190.647 734.237 192.982 730.18 195.148C726.863 196.917 723.595 198.775 720.308 200.604C719.312 201.191 718.193 201.534 717.041 201.606C715.889 201.679 714.736 201.479 713.674 201.021C711.769 200.256 709.795 199.7 707.514 198.934C708.101 198.328 708.721 197.754 709.37 197.215C721.295 188.411 734.711 182.498 748.472 177.41C768.216 170.116 788.364 163.995 809.075 160.08C817.626 158.443 826.276 157.384 834.968 156.91C847.9 156.244 860.871 156.353 873.823 156.145C875.363 156.145 876.893 156.214 878.433 156.234C878.492 156.234 878.552 156.045 878.788 155.648C878.275 155.34 877.801 154.823 877.248 154.773C867.231 153.91 857.162 153.817 847.13 154.495C842.194 154.833 837.258 155.101 832.263 155.359C818.798 156.075 805.61 158.679 792.618 162.008C775.011 166.331 757.718 171.863 740.861 178.563C729.647 183.134 718.63 188.202 708.808 195.506C708.452 195.774 708.028 195.943 707.051 196.5V192.147C707.051 177.877 707.199 163.598 707.051 149.328C706.893 134.193 706.478 119.078 706.172 103.954C706.172 103.338 706.172 102.732 706.093 102.125C705.994 100.794 705.57 99.6809 704.069 99.512C703.407 99.3937 702.724 99.5142 702.141 99.8522C701.558 100.19 701.112 100.724 700.881 101.36C700.527 102.515 700.37 103.721 700.417 104.928C700.371 134.7 700.335 164.469 700.308 194.234C700.308 195.079 700.2 195.924 700.13 197.027C695.866 196.48 691.72 195.784 687.554 195.437C673.23 194.254 658.985 194.443 645.106 198.756C639.271 200.544 633.733 202.999 629.627 207.828C628.788 208.822 628.047 209.875 627.05 211.177H608.778L355.026 211.048L247.049 210.998C237.839 210.998 228.609 211.386 219.408 210.8C214.958 210.485 210.535 211.72 206.881 214.298C202.617 217.07 198.194 219.624 193.831 222.247C192.422 223.094 191.199 224.22 190.237 225.558C189.274 226.896 188.593 228.417 188.234 230.028C187.424 233.208 186.812 236.448 185.973 239.628C184.67 244.596 183.416 249.565 181.817 254.375C180.632 257.972 179.171 261.579 174.463 261.937C173.93 261.937 173.081 263.119 173.09 263.736C173.16 264.134 173.324 264.51 173.568 264.831C173.812 265.153 174.129 265.411 174.492 265.584C175.411 265.832 176.381 265.808 177.286 265.514C178.942 265.071 180.46 264.215 181.701 263.026C182.941 261.836 183.864 260.351 184.384 258.707C186.486 252.496 188.243 246.166 190.129 239.826C190.366 239.012 190.435 238.147 190.652 237.332C191.945 232.672 192.627 232.125 197.434 232.145C288.806 232.423 380.179 232.711 471.551 233.009C519.784 233.175 568.014 233.423 616.241 233.755C618.756 233.892 621.251 234.292 623.684 234.947C625.727 235.394 626.646 236.935 626.764 238.982C626.823 239.707 626.823 240.443 626.823 241.178C626.981 260.45 627.142 279.721 627.307 298.993C627.307 300.444 626.734 302.173 628.422 303.216C630.15 302.63 629.844 301.298 629.844 300.146C629.844 296.36 629.765 292.583 629.755 288.797C629.755 287.744 629.864 286.681 629.972 284.763C640.89 300.821 656.823 306.496 674.267 309.785C673.852 312.945 673.615 315.966 673.023 318.907C671.824 324.959 672.915 331.243 676.083 336.526C680.821 344.933 687.514 351.601 695.027 357.494C695.397 357.813 695.797 358.096 696.221 358.339C699.281 359.869 700.17 362.313 700.17 365.742C700.012 462.465 699.926 559.217 699.913 656C699.913 680.287 699.897 704.567 699.864 728.84V733.531C695.56 732.994 691.562 732.328 687.534 732C673.21 730.828 658.965 731.007 645.086 735.309C640.041 736.68 635.352 739.138 631.344 742.514C630.21 743.434 629.304 744.607 628.698 745.94C628.092 747.273 627.801 748.73 627.85 750.195C627.85 752.262 627.909 754.339 627.85 756.416C627.662 766.9 627.455 777.374 627.258 787.997C624.582 789.935 621.394 790.183 618.373 790.819C616.226 791.197 614.046 791.357 611.868 791.296C567.774 791.455 523.661 791.597 479.528 791.723C415.789 791.955 352.048 792.2 288.303 792.459C258.135 792.588 227.957 792.816 197.789 792.985C192.656 792.985 191.58 792.051 190.326 786.685C189.339 782.293 188.352 777.891 187.089 773.568C186.18 770.667 185.068 767.834 183.762 765.091C183.227 763.852 182.44 762.738 181.453 761.822C180.465 760.907 179.298 760.209 178.026 759.775C176.89 759.401 175.682 759.305 174.502 759.497C174.133 759.64 173.806 759.875 173.551 760.178C173.296 760.482 173.12 760.846 173.041 761.236C173.103 761.622 173.263 761.986 173.505 762.292C173.747 762.598 174.063 762.837 174.423 762.985C178.836 763.472 180.534 766.701 181.629 770.279C183.387 775.973 185.025 781.707 186.378 787.51C189.339 800.428 189.092 800.071 199.645 806.391L209.941 812.552C212.037 813.769 214.435 814.359 216.852 814.251C230.425 814.102 243.999 814.142 257.562 814.132L401.531 814.023C436.188 814.023 470.844 813.996 505.5 813.943L620.012 813.774C621.581 813.774 623.151 813.983 624.721 814.042C625.576 814.045 626.407 814.335 627.081 814.866C627.755 815.397 628.234 816.138 628.442 816.974C631.068 824.745 636.458 830.23 642.983 834.712C651.433 840.505 660.881 843.765 670.851 845.643C671.907 845.842 672.954 846.06 674.237 846.319C673.822 849.509 673.585 852.53 672.993 855.471C671.794 861.523 672.886 867.807 676.053 873.09C680.792 881.497 687.495 888.165 695.007 894.057C695.568 894.523 696.166 894.941 696.794 895.31C698.956 896.462 699.755 898.152 699.676 900.676C699.528 910.683 699.597 920.68 699.597 930.686C699.563 931.785 699.612 932.885 699.745 933.976C699.816 934.832 700.209 935.629 700.844 936.204C701.478 936.778 702.308 937.087 703.161 937.066C704.741 936.937 705.58 935.864 705.609 933.648C705.747 924.008 705.817 914.369 705.984 904.74C706.241 889.496 706.596 874.253 706.823 859.029C706.765 858.309 706.933 857.589 707.303 856.97C707.674 856.351 708.227 855.865 708.887 855.58C710.059 854.936 711.173 854.188 712.213 853.344C734.287 836.451 759.489 826.901 786.399 821.645C799.933 819.001 813.576 816.815 827.268 815.205C843.383 813.157 859.628 812.323 875.866 812.711C876.854 812.711 877.782 812.711 878.65 812.711C879.479 810.435 879.529 783.227 878.808 780.077ZM408.037 793.81L618.166 792.995C619.153 792.995 620.14 792.936 621.068 792.995C623.901 793.224 625.925 794.824 626.409 797.576C626.749 799.614 626.878 801.683 626.794 803.747C626.636 808.716 625.5 809.71 620.683 809.71C569.311 809.948 517.932 810.19 466.546 810.435C413.963 810.674 361.377 810.892 308.787 811.091C280.307 811.2 251.827 811.031 223.357 811.469C216.23 811.578 210.08 810.197 204.334 806.113C201.077 803.797 197.572 801.839 194.236 799.633C193.14 798.918 191.807 798.053 192.577 796.424C192.864 795.742 193.362 795.171 193.997 794.797C194.632 794.422 195.37 794.265 196.101 794.347C197.789 794.456 199.487 794.426 201.185 794.416L408.037 793.81ZM408.363 231.29V231.191L201.866 230.316C200.06 230.316 198.243 230.386 196.437 230.565C195.651 230.688 194.846 230.545 194.15 230.158C193.453 229.772 192.903 229.163 192.587 228.428C191.768 226.769 193.209 226.033 194.236 225.229C195.175 224.463 196.164 223.763 197.197 223.132C201.353 220.628 205.618 218.302 209.695 215.669C212.134 214.076 215.002 213.278 217.908 213.383C231.728 213.582 245.549 213.705 259.369 213.751C314.262 213.989 369.152 214.215 424.039 214.427C489.35 214.705 554.664 214.996 619.982 215.301C626.892 215.301 627.712 216.126 627.652 223.022C627.593 230.823 626.31 232.085 618.501 232.026C601.295 231.916 584.089 231.767 566.882 231.718C514.036 231.552 461.196 231.41 408.363 231.29ZM631.641 260.297C631.479 259.507 631.367 258.707 631.305 257.902C631.443 243.275 631.631 228.637 631.729 214.009C631.68 213.156 631.826 212.303 632.156 211.515C632.487 210.728 632.993 210.027 633.635 209.468C635.402 208.007 637.169 206.328 639.232 205.493C643.794 203.573 648.501 202.024 653.309 200.862C664.827 198.421 676.672 197.957 688.344 199.491C696.359 200.485 704.454 201.31 711.967 204.807C713.628 205.577 715.454 205.916 717.278 205.793C719.102 205.669 720.867 205.088 722.411 204.102C726.3 201.866 730.15 199.551 734.138 197.543C738.291 195.349 742.578 193.421 746.972 191.77C752.026 189.981 761.493 194.542 762.539 201.131C763.023 204.112 763.902 207.093 764.109 210.074C764.741 219.515 761.523 227.484 753.744 232.93C747.82 236.927 741.683 240.596 735.363 243.921C730.812 246.425 725.984 248.432 721.266 250.628C718.679 251.841 716.33 251.92 713.842 249.962C711.961 248.63 709.873 247.622 707.663 246.981C693.201 241.9 677.675 240.688 662.608 243.463C650.841 245.63 640.061 250.022 631.641 260.297ZM631.69 796.911C631.522 796.31 631.394 795.699 631.305 795.082C631.453 780.176 631.562 765.33 631.838 750.454C631.914 748.901 632.529 747.424 633.575 746.28C635.223 744.5 637.206 743.067 639.41 742.067C643.978 740.161 648.692 738.632 653.506 737.496C664.909 735.086 676.633 734.629 688.186 736.144C696.202 737.138 704.296 737.933 711.819 741.401C713.471 742.185 715.292 742.544 717.117 742.445C718.941 742.346 720.713 741.793 722.273 740.835C726.221 738.628 730.101 736.472 733.981 734.236C738.196 731.831 742.371 729.387 747.169 728.274C752.48 727.061 761.414 731.255 762.539 737.635C763.22 740.586 763.747 743.571 764.119 746.578C764.81 756.168 761.424 764.048 753.655 769.762C743.428 777.284 731.937 782.502 720.427 787.649C719.443 788.126 718.345 788.313 717.26 788.188C716.175 788.063 715.148 787.631 714.296 786.943C712.296 785.585 710.129 784.492 707.85 783.694C700.081 780.782 691.967 779.58 683.724 778.984C671.612 777.937 659.427 779.821 648.186 784.479C641.725 787.122 636.045 791.388 631.69 796.871V796.911ZM680.644 246.236C680.14 251.94 679.657 257.107 679.212 262.642C668.581 260.486 657.662 260.138 648.669 252.059C658.733 247.644 669.681 245.65 680.644 246.236ZM648.63 788.643C658.709 784.237 669.673 782.266 680.644 782.889C680.17 788.504 679.726 793.681 679.262 799.196C668.65 797.179 657.751 796.732 648.679 788.643H648.63Z" fill="black"/>
<path d="M218.451 777.682C218.579 784.767 224.7 789.478 230.83 789.368C232.349 789.357 233.85 789.041 235.247 788.439C236.643 787.837 237.906 786.96 238.962 785.861C240.018 784.762 240.846 783.462 241.397 782.037C241.948 780.613 242.212 779.091 242.173 777.563C242.153 775.975 241.823 774.406 241.2 772.947C240.578 771.487 239.675 770.166 238.545 769.058C237.414 767.95 236.077 767.078 234.611 766.491C233.145 765.904 231.578 765.614 230.001 765.638C228.451 765.645 226.918 765.965 225.493 766.578C224.068 767.191 222.779 768.085 221.702 769.208C220.626 770.33 219.783 771.658 219.225 773.114C218.667 774.569 218.403 776.123 218.451 777.682ZM228.678 772.376C230.32 772.277 231.957 772.628 233.416 773.393C234.875 774.158 236.1 775.307 236.96 776.718C237.637 777.654 238.063 778.749 238.195 779.899C238.328 781.048 238.163 782.213 237.717 783.279C237.272 784.346 236.559 785.278 235.65 785.987C234.741 786.695 233.665 787.155 232.528 787.321C230.632 787.62 228.696 787.539 226.832 787.083C223.041 786.178 220.81 782.243 221.402 778.02C221.896 774.522 224.571 772.435 228.678 772.376Z" fill="black"/>
<path d="M242.173 247.379C242.232 240.84 236.852 235.216 230.435 235.573C223.525 235.951 218.589 240.741 218.451 247.359C218.41 248.919 218.68 250.471 219.244 251.925C219.808 253.378 220.656 254.703 221.737 255.822C222.818 256.941 224.11 257.83 225.538 258.439C226.966 259.047 228.5 259.361 230.05 259.363C231.63 259.384 233.198 259.09 234.664 258.498C236.13 257.906 237.465 257.027 238.592 255.913C239.719 254.799 240.615 253.471 241.23 252.006C241.844 250.542 242.165 248.969 242.173 247.379ZM230.327 237.342C235.085 237.273 238.224 240.085 238.224 244.427C238.224 248.561 233.851 252.606 229.171 252.775C224.492 252.944 221.363 250.032 221.274 245.64C221.245 240.86 224.986 237.412 230.307 237.342H230.327Z" fill="black"/>
<path d="M555.411 765.171C549.548 765.3 544.888 769.961 545.273 775.694C545.412 779.015 546.845 782.147 549.262 784.41C551.679 786.674 554.885 787.888 558.185 787.788C559.545 787.788 560.891 787.511 562.143 786.975C563.395 786.439 564.526 785.655 565.47 784.669C566.413 783.683 567.15 782.516 567.635 781.236C568.12 779.957 568.344 778.593 568.294 777.225C568.14 773.918 566.705 770.805 564.297 768.551C561.888 766.298 558.698 765.084 555.411 765.171ZM558.422 785.97C553.713 785.97 550.91 784.27 550.051 781.309C548.955 777.523 550.16 773.876 553.131 772.008C554.82 771.056 556.764 770.666 558.687 770.895C560.609 771.123 562.41 771.958 563.832 773.28C564.774 774.144 565.469 775.246 565.847 776.471C566.225 777.696 566.272 779.001 565.982 780.25C565.692 781.499 565.077 782.648 564.199 783.579C563.322 784.509 562.213 785.187 560.989 785.542C560.15 785.775 559.29 785.922 558.422 785.98V785.97Z" fill="black"/>
<path d="M557.85 237.302C556.219 237.277 554.599 237.577 553.083 238.184C551.567 238.791 550.185 239.693 549.017 240.839C547.848 241.985 546.916 243.351 546.274 244.861C545.631 246.37 545.291 247.992 545.273 249.635C545.277 251.007 545.552 252.366 546.081 253.631C546.611 254.896 547.385 256.043 548.358 257.004C549.332 257.966 550.486 258.723 551.752 259.232C553.019 259.741 554.373 259.992 555.737 259.969C559.027 259.899 562.164 258.56 564.501 256.228C566.838 253.896 568.196 250.749 568.294 247.438C568.294 241.575 563.891 237.302 557.85 237.302ZM557.583 254.196C556.521 254.23 555.463 254.042 554.476 253.645C553.489 253.249 552.594 252.651 551.847 251.89C551.1 251.128 550.517 250.22 550.135 249.222C549.753 248.223 549.58 247.156 549.627 246.087C549.696 241.665 552.934 238.793 557.82 238.813C562.381 238.813 566.3 242.251 566.201 246.147C566.119 248.369 565.166 250.468 563.551 251.985C561.937 253.503 559.791 254.315 557.583 254.245V254.196Z" fill="black"/>
<path d="M228.678 772.375C224.591 772.435 221.896 774.522 221.402 778.02C220.81 782.243 223.041 786.178 226.832 787.083C228.696 787.539 230.632 787.62 232.528 787.321C233.665 787.154 234.741 786.695 235.65 785.987C236.559 785.278 237.272 784.346 237.717 783.279C238.163 782.212 238.328 781.048 238.195 779.898C238.063 778.749 237.637 777.653 236.96 776.718C236.1 775.307 234.875 774.158 233.416 773.393C231.957 772.628 230.32 772.277 228.678 772.375Z" fill="white"/>
<path d="M230.307 237.342C224.986 237.412 221.244 240.86 221.304 245.64C221.304 250.032 224.561 252.944 229.201 252.775C233.841 252.606 238.273 248.561 238.253 244.427C238.194 240.085 235.065 237.273 230.307 237.342Z" fill="white"/>
<path d="M558.422 785.98C559.29 785.925 560.15 785.782 560.989 785.552C562.214 785.197 563.322 784.519 564.199 783.589C565.077 782.659 565.692 781.51 565.982 780.26C566.272 779.011 566.225 777.706 565.847 776.481C565.469 775.256 564.774 774.154 563.832 773.29C562.41 771.968 560.609 771.133 558.687 770.905C556.765 770.676 554.82 771.066 553.131 772.018C550.17 773.886 548.955 777.533 550.051 781.319C550.91 784.28 553.714 785.97 558.422 785.98Z" fill="white"/>
<path d="M557.583 254.245C559.783 254.316 561.921 253.51 563.535 252.003C565.148 250.496 566.106 248.41 566.201 246.196C566.3 242.301 562.381 238.892 557.82 238.863C552.934 238.863 549.696 241.715 549.627 246.137C549.58 247.206 549.753 248.273 550.135 249.271C550.517 250.27 551.1 251.178 551.847 251.939C552.594 252.701 553.489 253.298 554.476 253.695C555.463 254.092 556.521 254.279 557.583 254.245Z" fill="white"/>
<path d="M736.636 212.072C734.691 212.135 732.841 212.934 731.456 214.31C730.07 215.686 729.252 217.538 729.163 219.495C729.236 221.332 730.007 223.071 731.317 224.352C732.627 225.633 734.375 226.36 736.202 226.381C738.151 226.381 740.021 225.607 741.406 224.226C742.79 222.845 743.577 220.97 743.596 219.008C743.562 217.167 742.816 215.411 741.516 214.116C740.216 212.82 738.465 212.087 736.636 212.072Z" fill="black"/>
<path d="M736.814 748.685C734.864 748.698 732.992 749.453 731.573 750.799C730.154 752.145 729.293 753.981 729.163 755.939C729.193 757.784 729.927 759.547 731.214 760.86C732.501 762.174 734.241 762.939 736.073 762.995C738.021 763.035 739.907 762.302 741.322 760.953C742.737 759.605 743.568 757.75 743.635 755.79C743.646 753.943 742.938 752.166 741.663 750.838C740.388 749.51 738.648 748.737 736.814 748.685Z" fill="black"/>
<path d="M268.763 397.04C268.443 401.76 268.203 406.32 268.043 410.72C267.963 415.12 267.923 418.48 267.923 420.8C267.923 422.48 267.963 424.08 268.043 425.6C268.123 427.12 268.203 428.4 268.283 429.44H265.523C263.683 421.92 261.443 416 258.803 411.68C256.243 407.36 253.483 404.32 250.523 402.56C247.643 400.72 244.763 399.8 241.883 399.8H241.763V468.44C241.763 471.72 242.083 474.16 242.723 475.76C243.443 477.36 244.763 478.4 246.683 478.88C248.603 479.36 251.403 479.6 255.083 479.6V482C252.283 481.92 248.483 481.84 243.683 481.76C238.963 481.68 234.003 481.64 228.803 481.64C223.843 481.64 219.163 481.68 214.763 481.76C210.363 481.84 206.803 481.92 204.083 482V479.6C207.763 479.6 210.563 479.36 212.483 478.88C214.403 478.4 215.683 477.36 216.323 475.76C217.043 474.16 217.403 471.72 217.403 468.44V399.8H217.283C214.403 399.8 211.483 400.72 208.523 402.56C205.643 404.32 202.923 407.36 200.363 411.68C197.803 415.92 195.563 421.84 193.643 429.44H190.883C191.043 428.4 191.123 427.12 191.123 425.6C191.203 424.08 191.243 422.48 191.243 420.8C191.243 418.48 191.163 415.12 191.003 410.72C190.923 406.32 190.723 401.76 190.403 397.04C194.243 397.12 198.483 397.2 203.123 397.28C207.763 397.36 212.403 397.4 217.043 397.4C221.683 397.4 225.883 397.4 229.643 397.4C233.403 397.4 237.603 397.4 242.243 397.4C246.883 397.4 251.523 397.36 256.163 397.28C260.803 397.2 265.003 397.12 268.763 397.04ZM281.509 397.04C283.829 397.12 286.869 397.2 290.629 397.28C294.469 397.36 298.309 397.4 302.149 397.4C306.149 397.4 309.989 397.36 313.669 397.28C317.349 397.2 319.949 397.16 321.469 397.16C329.629 397.16 336.349 397.92 341.629 399.44C346.989 400.96 350.989 403.28 353.629 406.4C356.269 409.44 357.589 413.32 357.589 418.04C357.589 421 356.989 423.88 355.789 426.68C354.589 429.48 352.549 432.04 349.669 434.36C346.789 436.6 342.829 438.4 337.789 439.76C332.829 441.04 326.509 441.68 318.829 441.68H307.309V439.28H317.629C321.709 439.28 324.789 438.4 326.869 436.64C329.029 434.8 330.469 432.4 331.189 429.44C331.989 426.4 332.389 423.04 332.389 419.36C332.389 413.04 331.509 408.16 329.749 404.72C328.069 401.2 325.109 399.44 320.869 399.44C318.149 399.44 316.389 400.12 315.589 401.48C314.789 402.84 314.389 405.6 314.389 409.76V469.28C314.389 472.16 314.589 474.32 314.989 475.76C315.469 477.2 316.309 478.16 317.509 478.64C318.709 479.12 320.509 479.44 322.909 479.6V482C320.589 481.84 317.589 481.76 313.909 481.76C310.309 481.68 306.629 481.64 302.869 481.64C298.549 481.64 294.469 481.68 290.629 481.76C286.869 481.76 283.829 481.84 281.509 482V479.6C283.989 479.44 285.829 479.12 287.029 478.64C288.229 478.16 289.029 477.2 289.429 475.76C289.829 474.32 290.029 472.16 290.029 469.28V409.76C290.029 406.8 289.829 404.64 289.429 403.28C289.029 401.84 288.189 400.88 286.909 400.4C285.709 399.84 283.909 399.52 281.509 399.44V397.04ZM306.589 439.64C309.469 439.72 312.189 439.88 314.749 440.12C317.309 440.36 319.669 440.6 321.829 440.84C323.989 441 325.829 441.12 327.349 441.2C335.909 441.6 342.309 443.08 346.549 445.64C350.869 448.2 353.509 451.96 354.469 456.92L356.989 469.4C357.629 472.36 358.349 474.4 359.149 475.52C359.949 476.64 361.029 477.2 362.389 477.2C363.189 477.2 363.869 477.08 364.429 476.84C364.989 476.6 365.549 476.2 366.109 475.64L367.669 477.2C365.189 479.68 362.469 481.36 359.509 482.24C356.629 483.2 353.349 483.68 349.669 483.68C344.469 483.68 340.269 482.76 337.069 480.92C333.869 479 331.909 475.6 331.189 470.72L329.389 458.72C328.909 455.44 328.309 452.52 327.589 449.96C326.869 447.4 325.909 445.4 324.709 443.96C323.509 442.44 321.869 441.68 319.789 441.68H306.829L306.589 439.64ZM418.994 397.04L448.034 471.92C449.154 474.64 450.354 476.6 451.634 477.8C452.914 478.92 454.074 479.52 455.114 479.6V482C452.234 481.84 448.874 481.76 445.034 481.76C441.194 481.68 437.274 481.64 433.274 481.64C429.194 481.64 425.354 481.68 421.754 481.76C418.154 481.76 415.274 481.84 413.114 482V479.6C417.194 479.44 419.754 478.76 420.794 477.56C421.914 476.28 421.674 473.6 420.074 469.52L400.874 416.36L403.274 412.16L386.714 455.24C384.714 460.44 383.474 464.64 382.994 467.84C382.594 470.96 382.794 473.36 383.594 475.04C384.394 476.72 385.674 477.88 387.434 478.52C389.194 479.16 391.274 479.52 393.674 479.6V482C390.714 481.84 388.034 481.76 385.634 481.76C383.314 481.68 380.754 481.64 377.954 481.64C376.434 481.64 374.794 481.68 373.034 481.76C371.354 481.76 369.914 481.84 368.714 482V479.6C370.554 479.28 372.354 478.12 374.114 476.12C375.954 474.04 377.834 470.52 379.754 465.56L406.394 397.04C408.314 397.2 410.394 397.28 412.634 397.28C414.954 397.28 417.074 397.2 418.994 397.04ZM423.194 447.44V449.84H387.434L388.634 447.44H423.194ZM571.016 397.04V399.44C568.616 399.52 566.776 399.84 565.496 400.4C564.296 400.88 563.496 401.84 563.096 403.28C562.696 404.64 562.496 406.8 562.496 409.76V469.28C562.496 472.16 562.696 474.32 563.096 475.76C563.576 477.2 564.416 478.16 565.616 478.64C566.816 479.12 568.616 479.44 571.016 479.6V482C568.536 481.84 565.376 481.76 561.536 481.76C557.696 481.68 553.776 481.64 549.776 481.64C545.456 481.64 541.376 481.68 537.536 481.76C533.776 481.76 530.736 481.84 528.416 482V479.6C531.136 479.44 533.176 479.12 534.536 478.64C535.976 478.16 536.936 477.2 537.416 475.76C537.896 474.32 538.136 472.16 538.136 469.28V405.08L539.336 404.84L509.216 481.88H507.296L473.456 404.84V458.48C473.456 463.84 473.656 467.96 474.056 470.84C474.536 473.64 475.616 475.68 477.296 476.96C479.056 478.16 481.816 479.04 485.576 479.6V482C483.976 481.84 481.896 481.76 479.336 481.76C476.776 481.68 474.376 481.64 472.136 481.64C470.376 481.64 468.576 481.68 466.736 481.76C464.896 481.76 463.376 481.84 462.176 482V479.6C464.656 479.04 466.496 478.2 467.696 477.08C468.896 475.88 469.696 474 470.096 471.44C470.496 468.88 470.696 465.36 470.696 460.88V409.76C470.696 406.8 470.496 404.64 470.096 403.28C469.696 401.84 468.856 400.88 467.576 400.4C466.376 399.84 464.576 399.52 462.176 399.44V397.04C463.376 397.12 464.896 397.2 466.736 397.28C468.576 397.36 470.376 397.4 472.136 397.4C476.776 397.4 481.216 397.36 485.456 397.28C489.696 397.2 493.536 397.12 496.976 397.04L520.736 450.56L517.136 454.52L539.336 397.4C540.936 397.4 542.656 397.4 544.496 397.4C546.336 397.4 548.096 397.4 549.776 397.4C553.776 397.4 557.696 397.36 561.536 397.28C565.376 397.2 568.536 397.12 571.016 397.04ZM238.766 532.36C243.966 532.36 248.006 532.88 250.886 533.92C253.766 534.96 256.206 536.04 258.206 537.16C259.166 537.72 259.926 538.16 260.486 538.48C261.126 538.72 261.726 538.84 262.286 538.84C263.086 538.84 263.646 538.4 263.966 537.52C264.366 536.64 264.686 535.32 264.926 533.56H267.686C267.606 535.24 267.486 537.2 267.326 539.44C267.246 541.68 267.166 544.64 267.086 548.32C267.086 552 267.086 556.84 267.086 562.84H264.326C264.006 558.44 262.966 554.16 261.206 550C259.526 545.84 257.166 542.4 254.126 539.68C251.166 536.96 247.606 535.6 243.446 535.6C239.926 535.6 237.006 536.56 234.686 538.48C232.366 540.4 231.206 543.16 231.206 546.76C231.206 549.72 231.926 552.28 233.366 554.44C234.806 556.52 237.046 558.72 240.086 561.04C243.206 563.36 247.286 566.28 252.326 569.8C255.926 572.28 259.166 574.76 262.046 577.24C265.006 579.72 267.366 582.52 269.126 585.64C270.886 588.76 271.766 592.52 271.766 596.92C271.766 602.28 270.246 606.72 267.206 610.24C264.246 613.76 260.286 616.4 255.326 618.16C250.366 619.84 244.966 620.68 239.126 620.68C233.686 620.68 229.326 620.2 226.046 619.24C222.846 618.28 220.126 617.28 217.886 616.24C216.126 615.12 214.766 614.56 213.806 614.56C213.006 614.56 212.406 615 212.006 615.88C211.686 616.76 211.406 618.08 211.166 619.84H208.406C208.566 617.76 208.646 615.36 208.646 612.64C208.726 609.84 208.766 606.24 208.766 601.84C208.846 597.44 208.886 591.84 208.886 585.04H211.646C211.966 590.64 212.846 595.88 214.286 600.76C215.806 605.64 218.086 609.6 221.126 612.64C224.246 615.6 228.366 617.08 233.486 617.08C236.446 617.08 238.966 616.64 241.046 615.76C243.206 614.8 244.886 613.44 246.086 611.68C247.286 609.92 247.886 607.8 247.886 605.32C247.886 601.96 247.126 599.04 245.606 596.56C244.086 594 242.006 591.64 239.366 589.48C236.806 587.24 233.806 585 230.366 582.76C226.606 580.2 223.086 577.64 219.806 575.08C216.526 572.52 213.886 569.64 211.886 566.44C209.966 563.24 209.006 559.44 209.006 555.04C209.006 549.76 210.406 545.48 213.206 542.2C216.006 538.84 219.686 536.36 224.246 534.76C228.806 533.16 233.646 532.36 238.766 532.36ZM363.84 534.04C363.52 538.76 363.28 543.32 363.12 547.72C363.04 552.12 363 555.48 363 557.8C363 559.48 363.04 561.08 363.12 562.6C363.2 564.12 363.28 565.4 363.36 566.44H360.6C358.76 558.92 356.52 553 353.88 548.68C351.32 544.36 348.56 541.32 345.6 539.56C342.72 537.72 339.84 536.8 336.96 536.8H336.84V605.44C336.84 608.72 337.16 611.16 337.8 612.76C338.52 614.36 339.84 615.4 341.76 615.88C343.68 616.36 346.48 616.6 350.16 616.6V619C347.36 618.92 343.56 618.84 338.76 618.76C334.04 618.68 329.08 618.64 323.88 618.64C318.92 618.64 314.24 618.68 309.84 618.76C305.44 618.84 301.88 618.92 299.16 619V616.6C302.84 616.6 305.64 616.36 307.56 615.88C309.48 615.4 310.76 614.36 311.4 612.76C312.12 611.16 312.48 608.72 312.48 605.44V536.8H312.36C309.48 536.8 306.56 537.72 303.6 539.56C300.72 541.32 298 544.36 295.44 548.68C292.88 552.92 290.64 558.84 288.72 566.44H285.96C286.12 565.4 286.2 564.12 286.2 562.6C286.28 561.08 286.32 559.48 286.32 557.8C286.32 555.48 286.24 552.12 286.08 547.72C286 543.32 285.8 538.76 285.48 534.04C289.32 534.12 293.56 534.2 298.2 534.28C302.84 534.36 307.48 534.4 312.12 534.4C316.76 534.4 320.96 534.4 324.72 534.4C328.48 534.4 332.68 534.4 337.32 534.4C341.96 534.4 346.6 534.36 351.24 534.28C355.88 534.2 360.08 534.12 363.84 534.04ZM422.906 532.36C431.946 532.36 439.866 534.08 446.666 537.52C453.466 540.96 458.746 545.92 462.506 552.4C466.266 558.8 468.146 566.6 468.146 575.8C468.146 584.76 466.226 592.6 462.386 599.32C458.546 606.04 453.186 611.28 446.306 615.04C439.506 618.8 431.666 620.68 422.786 620.68C413.746 620.68 405.826 618.96 399.026 615.52C392.226 612.08 386.946 607.12 383.186 600.64C379.426 594.16 377.546 586.36 377.546 577.24C377.546 568.28 379.466 560.44 383.306 553.72C387.226 547 392.586 541.76 399.386 538C406.186 534.24 414.026 532.36 422.906 532.36ZM422.426 534.52C418.426 534.52 414.946 536.32 411.986 539.92C409.026 543.52 406.746 548.48 405.146 554.8C403.546 561.12 402.746 568.44 402.746 576.76C402.746 585.24 403.666 592.64 405.506 598.96C407.346 605.2 409.826 610.04 412.946 613.48C416.066 616.84 419.506 618.52 423.266 618.52C427.266 618.52 430.746 616.72 433.706 613.12C436.666 609.52 438.946 604.56 440.546 598.24C442.146 591.84 442.946 584.52 442.946 576.28C442.946 567.72 442.026 560.32 440.186 554.08C438.346 547.84 435.866 543.04 432.746 539.68C429.626 536.24 426.186 534.52 422.426 534.52ZM481.506 534.04C483.826 534.12 486.866 534.2 490.626 534.28C494.466 534.36 498.306 534.4 502.146 534.4C506.146 534.4 509.986 534.36 513.666 534.28C517.346 534.2 519.946 534.16 521.466 534.16C533.626 534.16 542.666 536.36 548.586 540.76C554.586 545.16 557.586 550.84 557.586 557.8C557.586 560.68 556.986 563.72 555.786 566.92C554.586 570.04 552.546 572.96 549.666 575.68C546.786 578.32 542.826 580.48 537.786 582.16C532.826 583.84 526.506 584.68 518.826 584.68H506.106V582.28H517.626C521.706 582.28 524.786 581.2 526.866 579.04C529.026 576.88 530.466 574.04 531.186 570.52C531.986 567 532.386 563.2 532.386 559.12C532.386 551.52 531.506 545.84 529.746 542.08C528.066 538.32 525.106 536.44 520.866 536.44C518.146 536.44 516.386 537.12 515.586 538.48C514.786 539.84 514.386 542.6 514.386 546.76V605.08C514.386 608.36 514.706 610.8 515.346 612.4C516.066 614 517.386 615.04 519.306 615.52C521.226 616 524.026 616.24 527.706 616.24V619C524.986 618.92 521.426 618.84 517.026 618.76C512.626 618.68 507.946 618.64 502.986 618.64C499.306 618.64 495.626 618.68 491.946 618.76C488.266 618.84 484.786 618.92 481.506 619V616.6C483.986 616.44 485.826 616.12 487.026 615.64C488.226 615.16 489.026 614.2 489.426 612.76C489.826 611.32 490.026 609.16 490.026 606.28V546.76C490.026 543.8 489.826 541.64 489.426 540.28C489.026 538.84 488.186 537.88 486.906 537.4C485.706 536.84 483.906 536.52 481.506 536.44V534.04Z" fill="black"/>
</svg>
